<!-- icon666.com - MILLIONS vector ICONS FREE --><svg id="Layer_1" viewBox="0 0 512 512" xmlns="http://www.w3.org/2000/svg" xmlns:xlink="http://www.w3.org/1999/xlink" data-name="Layer 1"><linearGradient id="GradientFill_1" gradientUnits="userSpaceOnUse" x1="256" x2="256" y2="512"><stop offset="0" stop-color="#fcaf2b"></stop><stop offset="1" stop-color="#e03536"></stop></linearGradient><path d="m256 0c-141.159 0-256 114.841-256 256s114.841 256 256 256 256-114.841 256-256-114.841-256-256-256zm0 476c-121.309 0-220-98.692-220-220s98.691-220 220-220 220 98.692 220 220-98.691 220-220 220zm140.854-319.262a18 18 0 0 1 0 25.456l-173.067 173.068a18 18 0 0 1 -25.455 0l-83.186-83.188a18 18 0 0 1 25.454-25.456l70.459 70.46 160.341-160.34a18 18 0 0 1 25.454 0z" fill="url(#GradientFill_1)"></path></svg>